<svg width="318" height="71" viewBox="0 0 318 71" fill="none" xmlns="http://www.w3.org/2000/svg">
<path d="M24.4844 1.46875C33.1719 1.46875 39.6719 3.35938 43.9844 7.14062C48.3281 10.9219 50.5 16.2969 50.5 23.2656C50.5 26.3906 50.0469 29.3906 49.1406 32.2656C48.2656 35.1406 46.8125 37.7031 44.7812 39.9531C42.7812 42.2031 40.1094 43.9844 36.7656 45.2969C33.4531 46.6094 29.3594 47.2656 24.4844 47.2656H19.2812V70H0.765625V1.46875H24.4844ZM24.0625 16.4219H19.2812V32.1719H22.9375C24.5312 32.1719 26.0156 31.9062 27.3906 31.375C28.7656 30.8125 29.8594 29.9219 30.6719 28.7031C31.5156 27.4531 31.9375 25.7969 31.9375 23.7344C31.9375 21.5781 31.2969 19.8281 30.0156 18.4844C28.7344 17.1094 26.75 16.4219 24.0625 16.4219ZM102.109 70H61.4219V1.46875H102.109V16.3281H79.9375V27.1094H100.469V41.9688H79.9375V54.9062H102.109V70ZM136.562 1.46875C142.781 1.46875 147.953 2.23438 152.078 3.76562C156.203 5.26562 159.297 7.51562 161.359 10.5156C163.453 13.5156 164.5 17.25 164.5 21.7188C164.5 24.5 164.031 27.0312 163.094 29.3125C162.156 31.5938 160.812 33.6406 159.062 35.4531C157.344 37.2344 155.281 38.7969 152.875 40.1406L172.844 70H151.844L137.312 45.0625H132.625V70H114.109V1.46875H136.562ZM136.281 15.4844H132.625V31.1406H136.094C138.938 31.1406 141.266 30.5156 143.078 29.2656C144.891 28.0156 145.797 25.7812 145.797 22.5625C145.797 20.3438 145.047 18.6094 143.547 17.3594C142.047 16.1094 139.625 15.4844 136.281 15.4844ZM243.203 35.6406C243.203 40.9219 242.562 45.7344 241.281 50.0781C240.031 54.3906 238.062 58.1094 235.375 61.2344C232.688 64.3594 229.234 66.7656 225.016 68.4531C220.797 70.1094 215.75 70.9375 209.875 70.9375C204.125 70.9375 199.141 70.1094 194.922 68.4531C190.734 66.7656 187.281 64.375 184.562 61.2812C181.844 58.1562 179.828 54.4219 178.516 50.0781C177.203 45.7344 176.547 40.8906 176.547 35.5469C176.547 28.4219 177.719 22.2344 180.062 16.9844C182.438 11.7031 186.094 7.625 191.031 4.75C195.969 1.84375 202.281 0.390625 209.969 0.390625C217.781 0.390625 224.125 1.84375 229 4.75C233.906 7.65625 237.5 11.75 239.781 17.0312C242.062 22.3125 243.203 28.5156 243.203 35.6406ZM196.047 35.6406C196.047 39.7656 196.516 43.3125 197.453 46.2812C198.391 49.25 199.875 51.5312 201.906 53.125C203.938 54.7188 206.594 55.5156 209.875 55.5156C213.281 55.5156 215.984 54.7188 217.984 53.125C220.016 51.5312 221.469 49.25 222.344 46.2812C223.25 43.3125 223.703 39.7656 223.703 35.6406C223.703 29.4531 222.672 24.5625 220.609 20.9688C218.547 17.375 215 15.5781 209.969 15.5781C206.625 15.5781 203.922 16.3906 201.859 18.0156C199.828 19.6406 198.344 21.9531 197.406 24.9531C196.5 27.9531 196.047 31.5156 196.047 35.6406ZM317.312 70H295.891L282.531 48.5781L269.312 70H248.359L271.094 34.9375L249.719 1.46875H270.25L282.625 22.6562L294.531 1.46875H315.672L293.969 36.3906L317.312 70Z" fill="#FFFF00"/>
<path d="M43.9844 7.14062L43.3251 7.89253L43.3278 7.89488L43.9844 7.14062ZM49.1406 32.2656L48.1868 31.965L48.184 31.9745L49.1406 32.2656ZM44.7812 39.9531L44.039 39.283L44.0338 39.2888L44.7812 39.9531ZM36.7656 45.2969L36.4002 44.366L36.3973 44.3672L36.7656 45.2969ZM19.2812 47.2656V46.2656H18.2812V47.2656H19.2812ZM19.2812 70V71H20.2812V70H19.2812ZM0.765625 70H-0.234375V71H0.765625V70ZM0.765625 1.46875V0.46875H-0.234375V1.46875H0.765625ZM19.2812 16.4219V15.4219H18.2812V16.4219H19.2812ZM19.2812 32.1719H18.2812V33.1719H19.2812V32.1719ZM27.3906 31.375L27.751 32.3078L27.7602 32.3043L27.7693 32.3005L27.3906 31.375ZM30.6719 28.7031L29.843 28.1436L29.8398 28.1484L30.6719 28.7031ZM30.0156 18.4844L29.284 19.1661L29.2919 19.1745L30.0156 18.4844ZM24.4844 2.46875C33.0499 2.46875 39.2688 4.33596 43.3251 7.89253L44.6437 6.38872C40.0749 2.38279 33.2939 0.46875 24.4844 0.46875V2.46875ZM43.3278 7.89488C47.4079 11.4466 49.5 16.5198 49.5 23.2656H51.5C51.5 16.074 49.2484 10.3972 44.641 6.38637L43.3278 7.89488ZM49.5 23.2656C49.5 26.2924 49.0614 29.1908 48.1869 31.965L50.0944 32.5663C51.0324 29.5905 51.5 26.4888 51.5 23.2656H49.5ZM48.184 31.9745C47.3521 34.7077 45.9727 37.1411 44.039 39.283L45.5235 40.6232C47.6523 38.2652 49.1791 35.5736 50.0973 32.5568L48.184 31.9745ZM44.0338 39.2888C42.1568 41.4004 39.6256 43.1 36.4002 44.366L37.131 46.2277C40.5932 44.8687 43.4057 43.0058 45.5287 40.6175L44.0338 39.2888ZM36.3973 44.3672C33.2365 45.6196 29.2767 46.2656 24.4844 46.2656V48.2656C29.4421 48.2656 33.6697 47.5992 37.134 46.2266L36.3973 44.3672ZM24.4844 46.2656H19.2812V48.2656H24.4844V46.2656ZM18.2812 47.2656V70H20.2812V47.2656H18.2812ZM19.2812 69H0.765625V71H19.2812V69ZM1.76562 70V1.46875H-0.234375V70H1.76562ZM0.765625 2.46875H24.4844V0.46875H0.765625V2.46875ZM24.0625 15.4219H19.2812V17.4219H24.0625V15.4219ZM18.2812 16.4219V32.1719H20.2812V16.4219H18.2812ZM19.2812 33.1719H22.9375V31.1719H19.2812V33.1719ZM22.9375 33.1719C24.6444 33.1719 26.252 32.887 27.751 32.3078L27.0302 30.4422C25.7792 30.9255 24.4181 31.1719 22.9375 31.1719V33.1719ZM27.7693 32.3005C29.3262 31.6636 30.579 30.6452 31.5039 29.2578L29.8398 28.1484C29.1397 29.1986 28.205 29.9614 27.012 30.4495L27.7693 32.3005ZM31.5007 29.2626C32.4902 27.7968 32.9375 25.925 32.9375 23.7344H30.9375C30.9375 25.6688 30.5411 27.1095 29.843 28.1437L31.5007 29.2626ZM32.9375 23.7344C32.9375 21.3657 32.2264 19.3539 30.7394 17.7943L29.2919 19.1745C30.3673 20.3023 30.9375 21.7906 30.9375 23.7344H32.9375ZM30.7472 17.8026C29.2075 16.1502 26.906 15.4219 24.0625 15.4219V17.4219C26.594 17.4219 28.2613 18.0685 29.284 19.1661L30.7472 17.8026ZM102.109 70V71H103.109V70H102.109ZM61.4219 70H60.4219V71H61.4219V70ZM61.4219 1.46875V0.46875H60.4219V1.46875H61.4219ZM102.109 1.46875H103.109V0.46875H102.109V1.46875ZM102.109 16.3281V17.3281H103.109V16.3281H102.109ZM79.9375 16.3281V15.3281H78.9375V16.3281H79.9375ZM79.9375 27.1094H78.9375V28.1094H79.9375V27.1094ZM100.469 27.1094H101.469V26.1094H100.469V27.1094ZM100.469 41.9688V42.9688H101.469V41.9688H100.469ZM79.9375 41.9688V40.9688H78.9375V41.9688H79.9375ZM79.9375 54.9062H78.9375V55.9062H79.9375V54.9062ZM102.109 54.9062H103.109V53.9062H102.109V54.9062ZM102.109 69H61.4219V71H102.109V69ZM62.4219 70V1.46875H60.4219V70H62.4219ZM61.4219 2.46875H102.109V0.46875H61.4219V2.46875ZM101.109 1.46875V16.3281H103.109V1.46875H101.109ZM102.109 15.3281H79.9375V17.3281H102.109V15.3281ZM78.9375 16.3281V27.1094H80.9375V16.3281H78.9375ZM79.9375 28.1094H100.469V26.1094H79.9375V28.1094ZM99.4688 27.1094V41.9688H101.469V27.1094H99.4688ZM100.469 40.9688H79.9375V42.9688H100.469V40.9688ZM78.9375 41.9688V54.9062H80.9375V41.9688H78.9375ZM79.9375 55.9062H102.109V53.9062H79.9375V55.9062ZM101.109 54.9062V70H103.109V54.9062H101.109ZM152.078 3.76562L151.73 4.70314L151.736 4.70542L152.078 3.76562ZM161.359 10.5156L160.535 11.0822L160.539 11.0879L161.359 10.5156ZM159.062 35.4531L158.343 34.7585L158.343 34.7588L159.062 35.4531ZM152.875 40.1406L152.387 39.2675L151.441 39.7958L152.044 40.6965L152.875 40.1406ZM172.844 70V71H174.716L173.675 69.4441L172.844 70ZM151.844 70L150.98 70.5035L151.269 71H151.844V70ZM137.312 45.0625L138.177 44.559L137.887 44.0625H137.312V45.0625ZM132.625 45.0625V44.0625H131.625V45.0625H132.625ZM132.625 70V71H133.625V70H132.625ZM114.109 70H113.109V71H114.109V70ZM114.109 1.46875V0.46875H113.109V1.46875H114.109ZM132.625 15.4844V14.4844H131.625V15.4844H132.625ZM132.625 31.1406H131.625V32.1406H132.625V31.1406ZM136.562 2.46875C142.708 2.46875 147.752 3.22646 151.73 4.70312L152.426 2.82813C148.154 1.24229 142.855 0.46875 136.562 0.46875V2.46875ZM151.736 4.70542C155.707 6.14919 158.613 8.28658 160.535 11.0822L162.183 9.9491C159.98 6.74467 156.699 4.38206 152.42 2.82583L151.736 4.70542ZM160.539 11.0879C162.492 13.886 163.5 17.4087 163.5 21.7188H165.5C165.5 17.0913 164.414 13.1453 162.179 9.94331L160.539 11.0879ZM163.5 21.7188C163.5 24.3862 163.051 26.7862 162.169 28.9324L164.019 29.6926C165.012 27.2763 165.5 24.6138 165.5 21.7188H163.5ZM162.169 28.9324C161.28 31.0942 160.007 33.0349 158.343 34.7585L159.782 36.1477C161.618 34.2463 163.032 32.0933 164.019 29.6926L162.169 28.9324ZM158.343 34.7588C156.7 36.4619 154.718 37.9663 152.387 39.2675L153.363 41.0137C155.845 39.6275 157.988 38.0069 159.782 36.1475L158.343 34.7588ZM152.044 40.6965L172.013 70.5559L173.675 69.4441L153.706 39.5847L152.044 40.6965ZM172.844 69H151.844V71H172.844V69ZM152.708 69.4965L138.177 44.559L136.448 45.566L150.98 70.5035L152.708 69.4965ZM137.312 44.0625H132.625V46.0625H137.312V44.0625ZM131.625 45.0625V70H133.625V45.0625H131.625ZM132.625 69H114.109V71H132.625V69ZM115.109 70V1.46875H113.109V70H115.109ZM114.109 2.46875H136.562V0.46875H114.109V2.46875ZM136.281 14.4844H132.625V16.4844H136.281V14.4844ZM131.625 15.4844V31.1406H133.625V15.4844H131.625ZM132.625 32.1406H136.094V30.1406H132.625V32.1406ZM136.094 32.1406C139.081 32.1406 141.624 31.4834 143.646 30.0888L142.51 28.4424C140.907 29.5479 138.794 30.1406 136.094 30.1406V32.1406ZM143.646 30.0888C145.839 28.5762 146.797 25.9486 146.797 22.5625H144.797C144.797 25.6139 143.942 27.4551 142.51 28.4424L143.646 30.0888ZM146.797 22.5625C146.797 20.0924 145.948 18.0584 144.187 16.5912L142.907 18.1276C144.146 19.1603 144.797 20.5951 144.797 22.5625H146.797ZM144.187 16.5912C142.418 15.1167 139.707 14.4844 136.281 14.4844V16.4844C139.543 16.4844 141.676 17.102 142.907 18.1276L144.187 16.5912ZM241.281 50.0781L240.322 49.7952L240.321 49.7997L241.281 50.0781ZM225.016 68.4531L225.381 69.384L225.387 69.3816L225.016 68.4531ZM194.922 68.4531L194.548 69.3807L194.556 69.384L194.922 68.4531ZM184.562 61.2812L183.808 61.9376L183.811 61.9414L184.562 61.2812ZM180.062 16.9844L179.15 16.5742L179.149 16.5767L180.062 16.9844ZM191.031 4.75L191.534 5.61418L191.539 5.61179L191.031 4.75ZM229 4.75L228.488 5.60895L228.49 5.61038L229 4.75ZM217.984 53.125L217.367 52.3382L217.361 52.3429L217.984 53.125ZM222.344 46.2812L221.387 45.9893L221.385 45.9985L222.344 46.2812ZM201.859 18.0156L201.24 17.2301L201.235 17.2348L201.859 18.0156ZM197.406 24.9531L196.452 24.6548L196.449 24.6639L197.406 24.9531ZM242.203 35.6406C242.203 40.8416 241.572 45.5571 240.322 49.7952L242.24 50.361C243.553 45.9117 244.203 41.0022 244.203 35.6406H242.203ZM240.321 49.7997C239.107 53.9871 237.203 57.5754 234.617 60.5823L236.133 61.8864C238.922 58.6434 240.955 54.7942 242.242 50.3565L240.321 49.7997ZM234.617 60.5823C232.045 63.5733 228.729 65.8906 224.644 67.5246L225.387 69.3816C229.739 67.6406 233.33 65.1454 236.133 61.8864L234.617 60.5823ZM224.65 67.5223C220.577 69.1215 215.66 69.9375 209.875 69.9375V71.9375C215.84 71.9375 221.017 71.0972 225.381 69.384L224.65 67.5223ZM209.875 69.9375C204.218 69.9375 199.363 69.1224 195.287 67.5223L194.556 69.384C198.918 71.0964 204.032 71.9375 209.875 71.9375V69.9375ZM195.296 67.5256C191.239 65.8908 187.92 63.5865 185.314 60.6211L183.811 61.9414C186.643 65.1635 190.23 67.6404 194.548 69.3806L195.296 67.5256ZM185.317 60.6249C182.7 57.6164 180.748 54.0103 179.473 49.7889L177.558 50.3674C178.908 54.8334 180.988 58.6961 183.808 61.9376L185.317 60.6249ZM179.473 49.7889C178.193 45.5538 177.547 40.8095 177.547 35.5469H175.547C175.547 40.9717 176.213 45.9149 177.558 50.3674L179.473 49.7889ZM177.547 35.5469C177.547 28.5297 178.701 22.4869 180.976 17.392L179.149 16.5767C176.736 21.9818 175.547 28.3141 175.547 35.5469H177.547ZM180.975 17.3945C183.265 12.3008 186.78 8.38268 191.534 5.61418L190.528 3.88582C185.408 6.86732 181.61 11.1055 179.15 16.5742L180.975 17.3945ZM191.539 5.61179C196.278 2.82185 202.401 1.39062 209.969 1.39062V-0.609375C202.162 -0.609375 195.659 0.865647 190.524 3.88821L191.539 5.61179ZM209.969 1.39062C217.666 1.39062 223.815 2.82345 228.488 5.60895L229.512 3.89105C224.435 0.864055 217.896 -0.609375 209.969 -0.609375V1.39062ZM228.49 5.61038C233.213 8.40799 236.665 12.3385 238.863 17.4278L240.699 16.6347C238.335 11.1615 234.599 6.90451 229.51 3.88962L228.49 5.61038ZM238.863 17.4278C241.079 22.5578 242.203 28.6204 242.203 35.6406H244.203C244.203 28.4108 243.046 22.0672 240.699 16.6347L238.863 17.4278ZM195.047 35.6406C195.047 39.8367 195.523 43.4904 196.5 46.5824L198.407 45.9801C197.508 43.1346 197.047 39.6946 197.047 35.6406H195.047ZM196.5 46.5824C197.485 49.703 199.069 52.17 201.289 53.9117L202.524 52.3383C200.681 50.8925 199.296 48.797 198.407 45.9801L196.5 46.5824ZM201.289 53.9117C203.539 55.6774 206.431 56.5156 209.875 56.5156V54.5156C206.756 54.5156 204.336 53.7601 202.524 52.3383L201.289 53.9117ZM209.875 56.5156C213.432 56.5156 216.379 55.6826 218.608 53.9071L217.361 52.3429C215.589 53.7549 213.13 54.5156 209.875 54.5156V56.5156ZM218.602 53.9117C220.827 52.1658 222.381 49.6916 223.303 46.564L221.385 45.9985C220.556 48.8084 219.204 50.8967 217.367 52.3383L218.602 53.9117ZM223.3 46.5732C224.243 43.4846 224.703 39.8342 224.703 35.6406H222.703C222.703 39.6971 222.257 43.1404 221.387 45.9893L223.3 46.5732ZM224.703 35.6406C224.703 29.3583 223.659 24.273 221.477 20.471L219.742 21.4665C221.685 24.852 222.703 29.5479 222.703 35.6406H224.703ZM221.477 20.471C219.195 16.4954 215.268 14.5781 209.969 14.5781V16.5781C214.732 16.5781 217.899 18.2546 219.742 21.4665L221.477 20.471ZM209.969 14.5781C206.463 14.5781 203.523 15.432 201.241 17.2301L202.478 18.8011C204.321 17.3493 206.787 16.5781 209.969 16.5781V14.5781ZM201.235 17.2348C199.018 19.0081 197.436 21.5049 196.452 24.6549L198.361 25.2514C199.251 22.4014 200.638 20.2732 202.484 18.7965L201.235 17.2348ZM196.449 24.6639C195.507 27.782 195.047 31.4467 195.047 35.6406H197.047C197.047 31.5846 197.493 28.1243 198.364 25.2423L196.449 24.6639ZM317.312 70V71H319.225L318.134 69.4295L317.312 70ZM295.891 70L295.042 70.5292L295.336 71H295.891V70ZM282.531 48.5781L283.38 48.049L282.527 46.6811L281.68 48.053L282.531 48.5781ZM269.312 70V71H269.87L270.164 70.5251L269.312 70ZM248.359 70L247.52 69.456L246.519 71H248.359V70ZM271.094 34.9375L271.933 35.4815L272.283 34.9416L271.937 34.3993L271.094 34.9375ZM249.719 1.46875V0.46875H247.894L248.876 2.007L249.719 1.46875ZM270.25 1.46875L271.114 0.964404L270.824 0.46875H270.25V1.46875ZM282.625 22.6562L281.761 23.1606L282.642 24.6677L283.497 23.1461L282.625 22.6562ZM294.531 1.46875V0.46875H293.946L293.659 0.978855L294.531 1.46875ZM315.672 1.46875L316.521 1.9966L317.471 0.46875H315.672V1.46875ZM293.969 36.3906L293.119 35.8628L292.772 36.4211L293.147 36.9611L293.969 36.3906ZM317.312 69H295.891V71H317.312V69ZM296.739 69.4708L283.38 48.049L281.683 49.1073L295.042 70.5292L296.739 69.4708ZM281.68 48.053L268.461 69.4749L270.164 70.5251L283.382 49.1033L281.68 48.053ZM269.312 69H248.359V71H269.312V69ZM249.198 70.544L271.933 35.4815L270.255 34.3935L247.52 69.456L249.198 70.544ZM271.937 34.3993L250.562 0.9305L248.876 2.007L270.251 35.4757L271.937 34.3993ZM249.719 2.46875H270.25V0.46875H249.719V2.46875ZM269.386 1.9731L281.761 23.1606L283.489 22.1519L271.114 0.964404L269.386 1.9731ZM283.497 23.1461L295.403 1.95864L293.659 0.978855L281.753 22.1664L283.497 23.1461ZM294.531 2.46875H315.672V0.46875H294.531V2.46875ZM314.823 0.940905L293.119 35.8628L294.818 36.9185L316.521 1.9966L314.823 0.940905ZM293.147 36.9611L316.491 70.5705L318.134 69.4295L294.79 35.8202L293.147 36.9611Z" fill="#FFFF00"/>
</svg>
