<svg width="343" height="70" viewBox="0 0 343 70" fill="none" xmlns="http://www.w3.org/2000/svg">
<path d="M58.8713 68V44.192C58.8713 41.248 58.9673 38.24 59.1593 35.168C59.4153 32.032 59.6713 29.408 59.9273 27.296C60.1833 25.184 60.3433 23.84 60.4073 23.264H60.0233L47.8313 68H31.2233L18.9353 23.36H18.5513C18.6153 23.936 18.7753 25.28 19.0312 27.392C19.3513 29.44 19.6393 32.032 19.8953 35.168C20.1513 38.24 20.2793 41.248 20.2793 44.192V68H0.79125V1.952H30.7433L40.7273 40.064H41.1113L50.9993 1.952H79.8953V68H58.8713ZM158.552 41.408C158.552 50.432 155.704 57.312 150.008 62.048C144.312 66.784 136.216 69.152 125.72 69.152C115.224 69.152 107.096 66.784 101.336 62.048C95.6395 57.312 92.7915 50.432 92.7915 41.408V1.952H114.008V41.12C114.008 44.832 115 47.808 116.984 50.048C118.968 52.224 121.848 53.312 125.624 53.312C129.4 53.312 132.28 52.192 134.264 49.952C136.312 47.712 137.336 44.768 137.336 41.12V1.952H158.552V41.408ZM200.504 0.799995C208.952 0.799995 215.896 2.528 221.336 5.984C226.776 9.376 229.56 14.432 229.688 21.152V22.304H209.816V21.92C209.816 20 209.112 18.4 207.704 17.12C206.296 15.84 204.152 15.2 201.272 15.2C198.456 15.2 196.28 15.616 194.744 16.448C193.272 17.28 192.536 18.304 192.536 19.52C192.536 21.248 193.56 22.528 195.608 23.36C197.656 24.192 200.952 25.056 205.496 25.952C210.808 27.04 215.16 28.192 218.552 29.408C222.008 30.56 225.016 32.48 227.576 35.168C230.136 37.856 231.448 41.504 231.512 46.112C231.512 53.92 228.856 59.712 223.544 63.488C218.296 67.264 211.256 69.152 202.424 69.152C192.12 69.152 184.088 67.424 178.328 63.968C172.632 60.512 169.784 54.4 169.784 45.632H189.848C189.848 48.96 190.712 51.2 192.44 52.352C194.168 53.44 196.856 53.984 200.504 53.984C203.192 53.984 205.4 53.696 207.128 53.12C208.92 52.544 209.816 51.36 209.816 49.568C209.816 47.968 208.824 46.784 206.84 46.016C204.92 45.184 201.752 44.32 197.336 43.424C191.96 42.272 187.512 41.088 183.992 39.872C180.472 38.592 177.4 36.512 174.776 33.632C172.152 30.752 170.84 26.848 170.84 21.92C170.84 14.688 173.624 9.376 179.192 5.984C184.824 2.528 191.928 0.799995 200.504 0.799995ZM243.002 68V1.952H264.218V68H243.002ZM310.842 0.799995C320.634 0.799995 328.378 3.264 334.074 8.192C339.77 13.056 342.618 20.032 342.618 29.12H322.362C322.362 25.28 321.338 22.24 319.29 20C317.306 17.76 314.458 16.64 310.746 16.64C306.458 16.64 303.29 17.984 301.242 20.672C299.258 23.36 298.266 27.104 298.266 31.904V38.048C298.266 42.784 299.258 46.528 301.242 49.28C303.29 51.968 306.394 53.312 310.554 53.312C314.65 53.312 317.754 52.256 319.866 50.144C321.978 48.032 323.034 45.056 323.034 41.216H342.618C342.618 50.24 339.834 57.152 334.266 61.952C328.762 66.752 320.954 69.152 310.842 69.152C299.578 69.152 291.034 66.272 285.21 60.512C279.45 54.752 276.57 46.24 276.57 34.976C276.57 23.712 279.45 15.2 285.21 9.44C291.034 3.68 299.578 0.799995 310.842 0.799995Z" fill="white"/>
<path d="M58.8713 68H57.8713V69H58.8713V68ZM59.1593 35.168L58.1626 35.0866L58.1618 35.0961L58.1612 35.1056L59.1593 35.168ZM59.9273 27.296L60.92 27.4163L60.92 27.4163L59.9273 27.296ZM60.4073 23.264L61.4011 23.3744L61.5245 22.264H60.4073V23.264ZM60.0233 23.264V22.264H59.2593L59.0584 23.0011L60.0233 23.264ZM47.8313 68V69H48.5952L48.7961 68.2629L47.8313 68ZM31.2233 68L30.2591 68.2654L30.4613 69H31.2233V68ZM18.9353 23.36L19.8994 23.0946L19.6972 22.36H18.9353V23.36ZM18.5513 23.36V22.36H17.434L17.5574 23.4704L18.5513 23.36ZM19.0312 27.392L18.0385 27.5123L18.0406 27.5294L18.0432 27.5464L19.0312 27.392ZM19.8953 35.168L18.8986 35.2494L18.8987 35.251L19.8953 35.168ZM20.2793 68V69H21.2793V68H20.2793ZM0.79125 68H-0.20875V69H0.79125V68ZM0.79125 1.952V0.951998H-0.20875V1.952H0.79125ZM30.7433 1.952L31.7106 1.69858L31.515 0.951998H30.7433V1.952ZM40.7273 40.064L39.7599 40.3174L39.9555 41.064H40.7273V40.064ZM41.1113 40.064V41.064H41.8849L42.0792 40.3151L41.1113 40.064ZM50.9993 1.952V0.951998H50.2256L50.0313 1.70087L50.9993 1.952ZM79.8953 1.952H80.8953V0.951998H79.8953V1.952ZM79.8953 68V69H80.8953V68H79.8953ZM59.8713 68V44.192H57.8713V68H59.8713ZM59.8713 44.192C59.8713 41.2697 59.9665 38.2825 60.1573 35.2304L58.1612 35.1056C57.968 38.1975 57.8713 41.2263 57.8713 44.192H59.8713ZM60.1559 35.2494C60.4113 32.1209 60.6661 29.5108 60.92 27.4163L58.9345 27.1757C58.6764 29.3052 58.4192 31.9431 58.1626 35.0866L60.1559 35.2494ZM60.92 27.4163C61.1758 25.3059 61.3365 23.9564 61.4011 23.3744L59.4134 23.1536C59.35 23.7236 59.1907 25.0621 58.9345 27.1757L60.92 27.4163ZM60.4073 22.264H60.0233V24.264H60.4073V22.264ZM59.0584 23.0011L46.8664 67.7371L48.7961 68.2629L60.9881 23.5269L59.0584 23.0011ZM47.8313 67H31.2233V69H47.8313V67ZM32.1874 67.7346L19.8994 23.0946L17.9711 23.6254L30.2591 68.2654L32.1874 67.7346ZM18.9353 22.36H18.5513V24.36H18.9353V22.36ZM17.5574 23.4704C17.622 24.0524 17.7827 25.4019 18.0385 27.5123L20.024 27.2717C19.7678 25.1581 19.6085 23.8196 19.5451 23.2496L17.5574 23.4704ZM18.0432 27.5464C18.3581 29.5612 18.6437 32.1267 18.8986 35.2494L20.8919 35.0866C20.6348 31.9373 20.3444 29.3188 20.0193 27.2376L18.0432 27.5464ZM18.8987 35.251C19.1525 38.2967 19.2793 41.277 19.2793 44.192H21.2793C21.2793 41.219 21.15 38.1833 20.8918 35.085L18.8987 35.251ZM19.2793 44.192V68H21.2793V44.192H19.2793ZM20.2793 67H0.79125V69H20.2793V67ZM1.79125 68V1.952H-0.20875V68H1.79125ZM0.79125 2.952H30.7433V0.951998H0.79125V2.952ZM29.7759 2.20541L39.7599 40.3174L41.6946 39.8106L31.7106 1.69858L29.7759 2.20541ZM40.7273 41.064H41.1113V39.064H40.7273V41.064ZM42.0792 40.3151L51.9672 2.20313L50.0313 1.70087L40.1433 39.8129L42.0792 40.3151ZM50.9993 2.952H79.8953V0.951998H50.9993V2.952ZM78.8953 1.952V68H80.8953V1.952H78.8953ZM79.8953 67H58.8713V69H79.8953V67ZM150.008 62.048L149.368 61.2791L149.368 61.2791L150.008 62.048ZM101.336 62.048L100.696 62.8169L100.7 62.8204L101.336 62.048ZM92.7915 1.952V0.951998H91.7915V1.952H92.7915ZM114.008 1.952H115.008V0.951998H114.008V1.952ZM116.984 50.048L116.235 50.711L116.24 50.7164L116.245 50.7218L116.984 50.048ZM134.264 49.952L133.525 49.2772L133.52 49.2831L133.515 49.289L134.264 49.952ZM137.336 1.952V0.951998H136.336V1.952H137.336ZM158.552 1.952H159.552V0.951998H158.552V1.952ZM157.552 41.408C157.552 50.206 154.786 56.7743 149.368 61.2791L150.647 62.8169C156.621 57.8497 159.552 50.658 159.552 41.408H157.552ZM149.368 61.2791C143.914 65.8142 136.078 68.152 125.72 68.152V70.152C136.353 70.152 144.709 67.7538 150.647 62.8169L149.368 61.2791ZM125.72 68.152C115.362 68.152 107.491 65.8146 101.971 61.2756L100.7 62.8204C106.7 67.7534 115.085 70.152 125.72 70.152V68.152ZM101.975 61.2791C96.557 56.7743 93.7915 50.206 93.7915 41.408H91.7915C91.7915 50.658 94.722 57.8497 100.696 62.8169L101.975 61.2791ZM93.7915 41.408V1.952H91.7915V41.408H93.7915ZM92.7915 2.952H114.008V0.951998H92.7915V2.952ZM113.008 1.952V41.12H115.008V1.952H113.008ZM113.008 41.12C113.008 45.0152 114.053 48.2471 116.235 50.711L117.732 49.385C115.946 47.3689 115.008 44.6488 115.008 41.12H113.008ZM116.245 50.7218C118.468 53.1607 121.651 54.312 125.624 54.312V52.312C122.044 52.312 119.467 51.2873 117.722 49.3742L116.245 50.7218ZM125.624 54.312C129.605 54.312 132.791 53.123 135.012 50.615L133.515 49.289C131.768 51.261 129.194 52.312 125.624 52.312V54.312ZM135.002 50.6268C137.251 48.1666 138.336 44.9645 138.336 41.12H136.336C136.336 44.5715 135.372 47.2574 133.525 49.2772L135.002 50.6268ZM138.336 41.12V1.952H136.336V41.12H138.336ZM137.336 2.952H158.552V0.951998H137.336V2.952ZM157.552 1.952V41.408H159.552V1.952H157.552ZM221.336 5.984L220.8 6.8281L220.807 6.83256L221.336 5.984ZM229.688 21.152H230.688V21.1425L230.688 21.133L229.688 21.152ZM229.688 22.304V23.304H230.688V22.304H229.688ZM209.816 22.304H208.816V23.304H209.816V22.304ZM207.704 17.12L208.377 16.3801L208.377 16.3801L207.704 17.12ZM194.744 16.448L194.268 15.5687L194.26 15.573L194.252 15.5774L194.744 16.448ZM195.608 23.36L195.985 22.4335L195.985 22.4335L195.608 23.36ZM205.496 25.952L205.697 24.9723L205.69 24.9709L205.496 25.952ZM218.552 29.408L218.215 30.3493L218.225 30.3531L218.236 30.3567L218.552 29.408ZM231.512 46.112H232.512L232.512 46.0981L231.512 46.112ZM223.544 63.488L222.965 62.6729L222.96 62.6763L223.544 63.488ZM178.328 63.968L177.81 64.8229L177.814 64.8255L178.328 63.968ZM169.784 45.632V44.632H168.784V45.632H169.784ZM189.848 45.632H190.848V44.632H189.848V45.632ZM192.44 52.352L191.886 53.1841L191.896 53.1913L191.907 53.1982L192.44 52.352ZM207.128 53.12L206.822 52.1679L206.812 52.1713L207.128 53.12ZM206.84 46.016L206.443 46.9336L206.461 46.9414L206.479 46.9486L206.84 46.016ZM197.336 43.424L197.127 44.4019L197.137 44.404L197.336 43.424ZM183.992 39.872L183.651 40.8118L183.658 40.8146L183.666 40.8172L183.992 39.872ZM174.776 33.632L174.037 34.3055L174.037 34.3055L174.776 33.632ZM179.192 5.984L179.713 6.83801L179.715 6.83632L179.192 5.984ZM200.504 1.8C208.82 1.8 215.563 3.50105 220.8 6.82807L221.872 5.13993C216.229 1.55494 209.084 -0.200005 200.504 -0.200005V1.8ZM220.807 6.83256C225.944 10.0353 228.567 14.7697 228.688 21.171L230.688 21.133C230.554 14.0943 227.609 8.71665 221.865 5.13544L220.807 6.83256ZM228.688 21.152V22.304H230.688V21.152H228.688ZM229.688 21.304H209.816V23.304H229.688V21.304ZM210.816 22.304V21.92H208.816V22.304H210.816ZM210.816 21.92C210.816 19.7212 209.996 17.8515 208.377 16.3801L207.032 17.8599C208.229 18.9485 208.816 20.2788 208.816 21.92H210.816ZM208.377 16.3801C206.71 14.8647 204.277 14.2 201.272 14.2V16.2C204.028 16.2 205.882 16.8153 207.032 17.8599L208.377 16.3801ZM201.272 14.2C198.381 14.2 196.014 14.6232 194.268 15.5687L195.221 17.3273C196.547 16.6088 198.531 16.2 201.272 16.2V14.2ZM194.252 15.5774C192.604 16.5089 191.536 17.8089 191.536 19.52H193.536C193.536 18.7991 193.94 18.0511 195.236 17.3186L194.252 15.5774ZM191.536 19.52C191.536 20.5978 191.861 21.5733 192.523 22.4007C193.173 23.2127 194.102 23.8277 195.232 24.2865L195.985 22.4335C195.066 22.0603 194.459 21.6193 194.085 21.1513C193.723 20.6987 193.536 20.1702 193.536 19.52H191.536ZM195.232 24.2865C197.374 25.1565 200.749 26.0351 205.303 26.9331L205.69 24.9709C201.156 24.0769 197.939 23.2275 195.985 22.4335L195.232 24.2865ZM205.296 26.9317C210.582 28.0144 214.884 29.1552 218.215 30.3493L218.89 28.4667C215.437 27.2288 211.035 26.0656 205.697 24.9723L205.296 26.9317ZM218.236 30.3567C221.534 31.456 224.403 33.2857 226.852 35.8577L228.3 34.4783C225.63 31.6743 222.483 29.664 218.868 28.4593L218.236 30.3567ZM226.852 35.8577C229.199 38.3218 230.451 41.7062 230.512 46.1259L232.512 46.0981C232.446 41.3018 231.074 37.3902 228.3 34.4783L226.852 35.8577ZM230.512 46.112C230.512 53.6691 227.959 59.1231 222.965 62.6729L224.124 64.3031C229.754 60.3009 232.512 54.1709 232.512 46.112H230.512ZM222.96 62.6763C217.935 66.2923 211.122 68.152 202.424 68.152V70.152C211.391 70.152 218.658 68.2357 224.128 64.2997L222.96 62.6763ZM202.424 68.152C192.212 68.152 184.385 66.4361 178.843 63.1105L177.814 64.8255C183.791 68.4119 192.028 70.152 202.424 70.152V68.152ZM178.847 63.1131C173.543 59.895 170.784 54.1757 170.784 45.632H168.784C168.784 54.6243 171.721 61.129 177.81 64.8229L178.847 63.1131ZM169.784 46.632H189.848V44.632H169.784V46.632ZM188.848 45.632C188.848 49.087 189.742 51.7553 191.886 53.1841L192.995 51.5199C191.682 50.6447 190.848 48.833 190.848 45.632H188.848ZM191.907 53.1982C193.877 54.4383 196.796 54.984 200.504 54.984V52.984C196.916 52.984 194.46 52.4417 192.973 51.5058L191.907 53.1982ZM200.504 54.984C203.254 54.984 205.578 54.6907 207.444 54.0687L206.812 52.1713C205.222 52.7013 203.131 52.984 200.504 52.984V54.984ZM207.434 54.072C208.473 53.738 209.34 53.1985 209.942 52.4034C210.547 51.6041 210.816 50.6355 210.816 49.568H208.816C208.816 50.2925 208.638 50.8119 208.347 51.1966C208.053 51.5855 207.575 51.926 206.822 52.168L207.434 54.072ZM210.816 49.568C210.816 48.5423 210.491 47.6167 209.839 46.8378C209.201 46.0766 208.294 45.5065 207.201 45.0834L206.479 46.9486C207.37 47.2935 207.951 47.6994 208.306 48.1222C208.645 48.5273 208.816 48.9937 208.816 49.568H210.816ZM207.238 45.0984C205.215 44.2221 201.96 43.3417 197.535 42.444L197.137 44.404C201.545 45.2983 204.625 46.1459 206.443 46.9336L207.238 45.0984ZM197.546 42.4462C192.193 41.2991 187.787 40.125 184.319 38.9268L183.666 40.8172C187.237 42.051 191.728 43.2449 197.127 44.4018L197.546 42.4462ZM184.334 38.9322C180.972 37.7098 178.035 35.7239 175.515 32.9585L174.037 34.3055C176.766 37.3001 179.972 39.4742 183.651 40.8118L184.334 38.9322ZM175.515 32.9585C173.1 30.3077 171.84 26.6673 171.84 21.92H169.84C169.84 27.0287 171.204 31.1963 174.037 34.3055L175.515 32.9585ZM171.84 21.92C171.84 14.9912 174.479 10.026 179.713 6.83801L178.672 5.12999C172.769 8.72602 169.84 14.3848 169.84 21.92H171.84ZM179.715 6.83632C185.15 3.50167 192.059 1.8 200.504 1.8V-0.200005C191.798 -0.200005 184.499 1.55432 178.669 5.13167L179.715 6.83632ZM243.002 68H242.002V69H243.002V68ZM243.002 1.952V0.951998H242.002V1.952H243.002ZM264.218 1.952H265.218V0.951998H264.218V1.952ZM264.218 68V69H265.218V68H264.218ZM244.002 68V1.952H242.002V68H244.002ZM243.002 2.952H264.218V0.951998H243.002V2.952ZM263.218 1.952V68H265.218V1.952H263.218ZM264.218 67H243.002V69H264.218V67ZM334.074 8.192L333.42 8.94826L333.425 8.95246L334.074 8.192ZM342.618 29.12V30.12H343.618V29.12H342.618ZM322.362 29.12H321.362V30.12H322.362V29.12ZM319.29 20L318.541 20.663L318.547 20.6689L318.552 20.6748L319.29 20ZM301.242 20.672L300.447 20.066L300.442 20.072L300.437 20.0781L301.242 20.672ZM301.242 49.28L300.431 49.8648L300.439 49.8755L300.447 49.886L301.242 49.28ZM319.866 50.144L319.159 49.4369L319.159 49.4369L319.866 50.144ZM323.034 41.216V40.216H322.034V41.216H323.034ZM342.618 41.216H343.618V40.216H342.618V41.216ZM334.266 61.952L333.613 61.1946L333.609 61.1983L334.266 61.952ZM285.21 60.512L284.503 61.2191L284.507 61.223L285.21 60.512ZM285.21 9.44L284.507 8.72899L284.503 8.73289L285.21 9.44ZM310.842 1.8C320.467 1.8 327.954 4.21971 333.42 8.94825L334.728 7.43575C328.802 2.30828 320.801 -0.200005 310.842 -0.200005V1.8ZM333.425 8.95246C338.851 13.5862 341.618 20.2562 341.618 29.12H343.618C343.618 19.8077 340.689 12.5258 334.723 7.43154L333.425 8.95246ZM342.618 28.12H322.362V30.12H342.618V28.12ZM323.362 29.12C323.362 25.099 322.286 21.7947 320.028 19.3252L318.552 20.6748C320.39 22.6853 321.362 25.461 321.362 29.12H323.362ZM320.039 19.337C317.821 16.8327 314.67 15.64 310.746 15.64V17.64C314.246 17.64 316.791 18.6873 318.541 20.663L320.039 19.337ZM310.746 15.64C306.238 15.64 302.733 17.0645 300.447 20.066L302.037 21.278C303.847 18.9035 306.678 17.64 310.746 17.64V15.64ZM300.437 20.0781C298.282 22.9987 297.266 26.9803 297.266 31.904H299.266C299.266 27.2277 300.234 23.7213 302.047 21.2658L300.437 20.0781ZM297.266 31.904V38.048H299.266V31.904H297.266ZM297.266 38.048C297.266 42.9131 298.284 46.887 300.431 49.8648L302.053 48.6952C300.232 46.169 299.266 42.6549 299.266 38.048H297.266ZM300.447 49.886C302.728 52.8798 306.162 54.312 310.554 54.312V52.312C306.626 52.312 303.852 51.0562 302.037 48.674L300.447 49.886ZM310.554 54.312C314.814 54.312 318.213 53.2115 320.573 50.8511L319.159 49.4369C317.295 51.3005 314.486 52.312 310.554 52.312V54.312ZM320.573 50.8511C322.922 48.5021 324.034 45.2419 324.034 41.216H322.034C322.034 44.87 321.034 47.5619 319.159 49.4369L320.573 50.8511ZM323.034 42.216H342.618V40.216H323.034V42.216ZM341.618 41.216C341.618 50.0211 338.911 56.627 333.613 61.1946L334.919 62.7094C340.757 57.677 343.618 50.4589 343.618 41.216H341.618ZM333.609 61.1983C328.346 65.7876 320.805 68.152 310.842 68.152V70.152C321.103 70.152 329.178 67.7164 334.923 62.7057L333.609 61.1983ZM310.842 68.152C299.741 68.152 291.489 65.3154 285.913 59.801L284.507 61.223C290.579 67.2286 299.415 70.152 310.842 70.152V68.152ZM285.917 59.8049C280.407 54.2947 277.57 46.0783 277.57 34.976H275.57C275.57 46.4017 278.493 55.2093 284.503 61.2191L285.917 59.8049ZM277.57 34.976C277.57 23.8737 280.407 15.6572 285.917 10.1471L284.503 8.73289C278.493 14.7427 275.57 23.5503 275.57 34.976H277.57ZM285.913 10.151C291.489 4.63663 299.741 1.8 310.842 1.8V-0.200005C299.415 -0.200005 290.579 2.72336 284.507 8.729L285.913 10.151Z" fill="#FFF9F9"/>
</svg>
