<svg width="402" height="70" viewBox="0 0 402 70" fill="none" xmlns="http://www.w3.org/2000/svg">
<path d="M24.4154 68L0.991375 1.952H23.6474L36.8954 46.112H37.2794L50.6234 1.952H72.3194L48.9914 68H24.4154ZM82.1421 68V1.952H103.358V68H82.1421ZM147.103 1.952C170.207 1.952 181.759 12.96 181.759 34.976C181.759 56.992 170.207 68 147.103 68H118.495V1.952H147.103ZM139.711 52.16H146.719C155.615 52.16 160.063 47.392 160.063 37.856V32.096C160.063 22.56 155.615 17.792 146.719 17.792H139.711V52.16ZM193.213 1.952H250.333V17.792H214.429V26.912H245.149V42.08H214.429V52.16H251.005V68H193.213V1.952ZM295.327 0.799995C306.719 0.799995 315.519 3.712 321.727 9.536C327.935 15.36 331.039 23.84 331.039 34.976C331.039 46.112 327.935 54.592 321.727 60.416C315.519 66.24 306.719 69.152 295.327 69.152C283.935 69.152 275.135 66.272 268.927 60.512C262.783 54.688 259.711 46.176 259.711 34.976C259.711 23.776 262.783 15.296 268.927 9.536C275.135 3.712 283.935 0.799995 295.327 0.799995ZM295.327 16.64C290.783 16.64 287.327 18.016 284.959 20.768C282.591 23.52 281.407 27.232 281.407 31.904V38.048C281.407 42.72 282.591 46.432 284.959 49.184C287.327 51.936 290.783 53.312 295.327 53.312C299.871 53.312 303.327 51.936 305.695 49.184C308.127 46.432 309.343 42.72 309.343 38.048V31.904C309.343 27.232 308.127 23.52 305.695 20.768C303.327 18.016 299.871 16.64 295.327 16.64ZM370.207 0.799995C378.655 0.799995 385.599 2.528 391.039 5.984C396.479 9.376 399.263 14.432 399.391 21.152V22.304H379.519V21.92C379.519 20 378.815 18.4 377.407 17.12C375.999 15.84 373.855 15.2 370.975 15.2C368.159 15.2 365.983 15.616 364.447 16.448C362.975 17.28 362.239 18.304 362.239 19.52C362.239 21.248 363.263 22.528 365.311 23.36C367.359 24.192 370.655 25.056 375.199 25.952C380.511 27.04 384.863 28.192 388.255 29.408C391.711 30.56 394.719 32.48 397.279 35.168C399.839 37.856 401.151 41.504 401.215 46.112C401.215 53.92 398.559 59.712 393.247 63.488C387.999 67.264 380.959 69.152 372.127 69.152C361.823 69.152 353.791 67.424 348.031 63.968C342.335 60.512 339.487 54.4 339.487 45.632H359.551C359.551 48.96 360.415 51.2 362.143 52.352C363.871 53.44 366.559 53.984 370.207 53.984C372.895 53.984 375.103 53.696 376.831 53.12C378.623 52.544 379.519 51.36 379.519 49.568C379.519 47.968 378.527 46.784 376.543 46.016C374.623 45.184 371.455 44.32 367.039 43.424C361.663 42.272 357.215 41.088 353.695 39.872C350.175 38.592 347.103 36.512 344.479 33.632C341.855 30.752 340.543 26.848 340.543 21.92C340.543 14.688 343.327 9.376 348.895 5.984C354.527 2.528 361.631 0.799995 370.207 0.799995Z" fill="#FFFF00"/>
<path d="M24.4154 68L23.4729 68.3343L23.709 69H24.4154V68ZM0.991375 1.952V0.951998H-0.424303L0.0488916 2.28625L0.991375 1.952ZM23.6474 1.952L24.6052 1.66465L24.3914 0.951998H23.6474V1.952ZM36.8954 46.112L35.9376 46.3993L36.1513 47.112H36.8954V46.112ZM37.2794 46.112V47.112H38.0219L38.2366 46.4013L37.2794 46.112ZM50.6234 1.952V0.951998H49.8809L49.6661 1.66274L50.6234 1.952ZM72.3194 1.952L73.2623 2.28503L73.7331 0.951998H72.3194V1.952ZM48.9914 68V69H49.6987L49.9343 68.333L48.9914 68ZM25.3579 67.6657L1.93386 1.61774L0.0488916 2.28625L23.4729 68.3343L25.3579 67.6657ZM0.991375 2.952H23.6474V0.951998H0.991375V2.952ZM22.6896 2.23935L35.9376 46.3993L37.8532 45.8247L24.6052 1.66465L22.6896 2.23935ZM36.8954 47.112H37.2794V45.112H36.8954V47.112ZM38.2366 46.4013L51.5806 2.24125L49.6661 1.66274L36.3221 45.8227L38.2366 46.4013ZM50.6234 2.952H72.3194V0.951998H50.6234V2.952ZM71.3765 1.61896L48.0485 67.667L49.9343 68.333L73.2623 2.28503L71.3765 1.61896ZM48.9914 67H24.4154V69H48.9914V67ZM82.1421 68H81.1421V69H82.1421V68ZM82.1421 1.952V0.951998H81.1421V1.952H82.1421ZM103.358 1.952H104.358V0.951998H103.358V1.952ZM103.358 68V69H104.358V68H103.358ZM83.1421 68V1.952H81.1421V68H83.1421ZM82.1421 2.952H103.358V0.951998H82.1421V2.952ZM102.358 1.952V68H104.358V1.952H102.358ZM103.358 67H82.1421V69H103.358V67ZM118.495 68H117.495V69H118.495V68ZM118.495 1.952V0.951998H117.495V1.952H118.495ZM139.711 52.16H138.711V53.16H139.711V52.16ZM139.711 17.792V16.792H138.711V17.792H139.711ZM147.103 2.952C158.512 2.952 166.884 5.67088 172.405 10.9319C177.917 16.1844 180.759 24.1348 180.759 34.976H182.759C182.759 23.8012 179.824 15.2396 173.784 9.48405C167.754 3.73711 158.797 0.951998 147.103 0.951998V2.952ZM180.759 34.976C180.759 45.8172 177.917 53.7676 172.405 59.0201C166.884 64.2811 158.512 67 147.103 67V69C158.797 69 167.754 66.2149 173.784 60.4679C179.824 54.7124 182.759 46.1508 182.759 34.976H180.759ZM147.103 67H118.495V69H147.103V67ZM119.495 68V1.952H117.495V68H119.495ZM118.495 2.952H147.103V0.951998H118.495V2.952ZM139.711 53.16H146.719V51.16H139.711V53.16ZM146.719 53.16C151.339 53.16 154.984 51.9185 157.458 49.2661C159.92 46.6269 161.063 42.7615 161.063 37.856H159.063C159.063 42.4865 157.981 45.7731 155.995 47.9019C154.022 50.0175 150.994 51.16 146.719 51.16V53.16ZM161.063 37.856V32.096H159.063V37.856H161.063ZM161.063 32.096C161.063 27.1905 159.92 23.3251 157.458 20.6859C154.984 18.0335 151.339 16.792 146.719 16.792V18.792C150.994 18.792 154.022 19.9345 155.995 22.0501C157.981 24.1789 159.063 27.4655 159.063 32.096H161.063ZM146.719 16.792H139.711V18.792H146.719V16.792ZM138.711 17.792V52.16H140.711V17.792H138.711ZM193.213 1.952V0.951998H192.213V1.952H193.213ZM250.333 1.952H251.333V0.951998H250.333V1.952ZM250.333 17.792V18.792H251.333V17.792H250.333ZM214.429 17.792V16.792H213.429V17.792H214.429ZM214.429 26.912H213.429V27.912H214.429V26.912ZM245.149 26.912H246.149V25.912H245.149V26.912ZM245.149 42.08V43.08H246.149V42.08H245.149ZM214.429 42.08V41.08H213.429V42.08H214.429ZM214.429 52.16H213.429V53.16H214.429V52.16ZM251.005 52.16H252.005V51.16H251.005V52.16ZM251.005 68V69H252.005V68H251.005ZM193.213 68H192.213V69H193.213V68ZM193.213 2.952H250.333V0.951998H193.213V2.952ZM249.333 1.952V17.792H251.333V1.952H249.333ZM250.333 16.792H214.429V18.792H250.333V16.792ZM213.429 17.792V26.912H215.429V17.792H213.429ZM214.429 27.912H245.149V25.912H214.429V27.912ZM244.149 26.912V42.08H246.149V26.912H244.149ZM245.149 41.08H214.429V43.08H245.149V41.08ZM213.429 42.08V52.16H215.429V42.08H213.429ZM214.429 53.16H251.005V51.16H214.429V53.16ZM250.005 52.16V68H252.005V52.16H250.005ZM251.005 67H193.213V69H251.005V67ZM194.213 68V1.952H192.213V68H194.213ZM321.727 60.416L321.042 59.6867L321.042 59.6867L321.727 60.416ZM268.927 60.512L268.239 61.2378L268.246 61.2451L268.927 60.512ZM268.927 9.536L269.611 10.2655L269.611 10.2653L268.927 9.536ZM284.959 20.768L285.717 21.4202L285.717 21.4202L284.959 20.768ZM305.695 49.184L304.945 48.5217L304.937 48.5318L305.695 49.184ZM305.695 20.768L304.937 21.4203L304.945 21.4302L305.695 20.768ZM295.327 1.8C306.552 1.8 315.075 4.66722 321.042 10.2653L322.411 8.80669C315.962 2.75677 306.885 -0.200005 295.327 -0.200005V1.8ZM321.042 10.2653C326.992 15.8467 330.039 24.0268 330.039 34.976H332.039C332.039 23.6532 328.877 14.8733 322.411 8.80669L321.042 10.2653ZM330.039 34.976C330.039 45.9252 326.992 54.1053 321.042 59.6867L322.411 61.1453C328.877 55.0787 332.039 46.2988 332.039 34.976H330.039ZM321.042 59.6867C315.075 65.2848 306.552 68.152 295.327 68.152V70.152C306.885 70.152 315.962 67.1952 322.411 61.1453L321.042 59.6867ZM295.327 68.152C284.098 68.152 275.574 65.3153 269.607 59.7789L268.246 61.2451C274.696 67.2287 283.771 70.152 295.327 70.152V68.152ZM269.615 59.7862C263.728 54.2065 260.711 45.9941 260.711 34.976H258.711C258.711 46.3579 261.837 55.1695 268.239 61.2378L269.615 59.7862ZM260.711 34.976C260.711 23.9571 263.729 15.7799 269.611 10.2655L268.243 8.80646C261.837 14.812 258.711 23.5948 258.711 34.976H260.711ZM269.611 10.2653C275.578 4.66722 284.101 1.8 295.327 1.8V-0.200005C283.768 -0.200005 274.691 2.75677 268.242 8.80669L269.611 10.2653ZM295.327 15.64C290.571 15.64 286.805 17.0892 284.201 20.1158L285.717 21.4202C287.848 18.9428 290.995 17.64 295.327 17.64V15.64ZM284.201 20.1158C281.636 23.0962 280.407 27.0629 280.407 31.904H282.407C282.407 27.4011 283.545 23.9438 285.717 21.4202L284.201 20.1158ZM280.407 31.904V38.048H282.407V31.904H280.407ZM280.407 38.048C280.407 42.8891 281.636 46.8558 284.201 49.8362L285.717 48.5318C283.545 46.0082 282.407 42.5509 282.407 38.048H280.407ZM284.201 49.8362C286.805 52.8628 290.571 54.312 295.327 54.312V52.312C290.995 52.312 287.848 51.0092 285.717 48.5318L284.201 49.8362ZM295.327 54.312C300.083 54.312 303.848 52.8628 306.453 49.8362L304.937 48.5318C302.805 51.0092 299.659 52.312 295.327 52.312V54.312ZM306.444 49.8462C309.078 46.8659 310.343 42.8955 310.343 38.048H308.343C308.343 42.5445 307.176 45.9981 304.945 48.5218L306.444 49.8462ZM310.343 38.048V31.904H308.343V38.048H310.343ZM310.343 31.904C310.343 27.0565 309.078 23.0861 306.444 20.1058L304.945 21.4302C307.176 23.9539 308.343 27.4075 308.343 31.904H310.343ZM306.453 20.1158C303.848 17.0892 300.083 15.64 295.327 15.64V17.64C299.659 17.64 302.805 18.9428 304.937 21.4202L306.453 20.1158ZM391.039 5.984L390.503 6.8281L390.51 6.83256L391.039 5.984ZM399.391 21.152H400.391V21.1425L400.391 21.133L399.391 21.152ZM399.391 22.304V23.304H400.391V22.304H399.391ZM379.519 22.304H378.519V23.304H379.519V22.304ZM377.407 17.12L378.08 16.3801L378.08 16.3801L377.407 17.12ZM364.447 16.448L363.971 15.5687L363.963 15.573L363.955 15.5774L364.447 16.448ZM365.311 23.36L365.688 22.4335L365.688 22.4335L365.311 23.36ZM375.199 25.952L375.4 24.9723L375.393 24.9709L375.199 25.952ZM388.255 29.408L387.918 30.3493L387.928 30.3531L387.939 30.3567L388.255 29.408ZM401.215 46.112H402.215L402.215 46.0981L401.215 46.112ZM393.247 63.488L392.668 62.6729L392.663 62.6763L393.247 63.488ZM348.031 63.968L347.513 64.8229L347.517 64.8255L348.031 63.968ZM339.487 45.632V44.632H338.487V45.632H339.487ZM359.551 45.632H360.551V44.632H359.551V45.632ZM362.143 52.352L361.589 53.1841L361.6 53.1913L361.611 53.1982L362.143 52.352ZM376.831 53.12L376.525 52.1679L376.515 52.1713L376.831 53.12ZM376.543 46.016L376.146 46.9336L376.164 46.9414L376.182 46.9486L376.543 46.016ZM367.039 43.424L366.83 44.4019L366.841 44.404L367.039 43.424ZM353.695 39.872L353.354 40.8118L353.361 40.8146L353.369 40.8172L353.695 39.872ZM344.479 33.632L343.74 34.3055L343.74 34.3055L344.479 33.632ZM348.895 5.984L349.416 6.83801L349.418 6.83632L348.895 5.984ZM370.207 1.8C378.523 1.8 385.266 3.50105 390.503 6.82807L391.576 5.13993C385.933 1.55494 378.787 -0.200005 370.207 -0.200005V1.8ZM390.51 6.83256C395.647 10.0353 398.27 14.7697 398.392 21.171L400.391 21.133C400.257 14.0943 397.312 8.71665 391.568 5.13544L390.51 6.83256ZM398.391 21.152V22.304H400.391V21.152H398.391ZM399.391 21.304H379.519V23.304H399.391V21.304ZM380.519 22.304V21.92H378.519V22.304H380.519ZM380.519 21.92C380.519 19.7212 379.699 17.8515 378.08 16.3801L376.735 17.8599C377.932 18.9485 378.519 20.2788 378.519 21.92H380.519ZM378.08 16.3801C376.413 14.8647 373.98 14.2 370.975 14.2V16.2C373.731 16.2 375.586 16.8153 376.735 17.8599L378.08 16.3801ZM370.975 14.2C368.084 14.2 365.717 14.6232 363.971 15.5687L364.924 17.3273C366.25 16.6088 368.235 16.2 370.975 16.2V14.2ZM363.955 15.5774C362.307 16.5089 361.239 17.8089 361.239 19.52H363.239C363.239 18.7991 363.643 18.0511 364.939 17.3186L363.955 15.5774ZM361.239 19.52C361.239 20.5978 361.565 21.5733 362.227 22.4007C362.876 23.2127 363.806 23.8277 364.935 24.2865L365.688 22.4335C364.769 22.0603 364.163 21.6193 363.788 21.1513C363.426 20.6987 363.239 20.1702 363.239 19.52H361.239ZM364.935 24.2865C367.077 25.1565 370.452 26.0351 375.006 26.9331L375.393 24.9709C370.859 24.0769 367.642 23.2275 365.688 22.4335L364.935 24.2865ZM374.999 26.9317C380.285 28.0144 384.587 29.1552 387.918 30.3493L388.593 28.4667C385.14 27.2288 380.738 26.0656 375.4 24.9723L374.999 26.9317ZM387.939 30.3567C391.237 31.456 394.106 33.2857 396.555 35.8577L398.004 34.4783C395.333 31.6743 392.186 29.664 388.572 28.4593L387.939 30.3567ZM396.555 35.8577C398.902 38.3218 400.154 41.7062 400.215 46.1259L402.215 46.0981C402.149 41.3018 400.777 37.3902 398.004 34.4783L396.555 35.8577ZM400.215 46.112C400.215 53.6691 397.662 59.1231 392.668 62.6729L393.827 64.3031C399.457 60.3009 402.215 54.1709 402.215 46.112H400.215ZM392.663 62.6763C387.638 66.2923 380.825 68.152 372.127 68.152V70.152C381.094 70.152 388.361 68.2357 393.831 64.2997L392.663 62.6763ZM372.127 68.152C361.916 68.152 354.089 66.4361 348.546 63.1105L347.517 64.8255C353.494 68.4119 361.731 70.152 372.127 70.152V68.152ZM348.55 63.1131C343.246 59.895 340.487 54.1757 340.487 45.632H338.487C338.487 54.6243 341.424 61.129 347.513 64.8229L348.55 63.1131ZM339.487 46.632H359.551V44.632H339.487V46.632ZM358.551 45.632C358.551 49.087 359.446 51.7553 361.589 53.1841L362.698 51.5199C361.385 50.6447 360.551 48.833 360.551 45.632H358.551ZM361.611 53.1982C363.58 54.4383 366.499 54.984 370.207 54.984V52.984C366.619 52.984 364.163 52.4417 362.676 51.5058L361.611 53.1982ZM370.207 54.984C372.957 54.984 375.282 54.6907 377.148 54.0687L376.515 52.1713C374.925 52.7013 372.834 52.984 370.207 52.984V54.984ZM377.137 54.072C378.177 53.738 379.043 53.1985 379.645 52.4034C380.25 51.6041 380.519 50.6355 380.519 49.568H378.519C378.519 50.2925 378.341 50.8119 378.05 51.1966C377.756 51.5855 377.278 51.926 376.525 52.168L377.137 54.072ZM380.519 49.568C380.519 48.5423 380.195 47.6167 379.542 46.8378C378.904 46.0766 377.997 45.5065 376.904 45.0834L376.182 46.9486C377.073 47.2935 377.655 47.6994 378.009 48.1222C378.348 48.5273 378.519 48.9937 378.519 49.568H380.519ZM376.941 45.0984C374.919 44.2221 371.663 43.3417 367.238 42.444L366.841 44.404C371.248 45.2983 374.328 46.1459 376.146 46.9336L376.941 45.0984ZM367.249 42.4462C361.896 41.2991 357.49 40.125 354.022 38.9268L353.369 40.8172C356.941 42.051 361.431 43.2449 366.83 44.4018L367.249 42.4462ZM354.037 38.9322C350.675 37.7098 347.738 35.7239 345.219 32.9585L343.74 34.3055C346.469 37.3001 349.675 39.4742 353.354 40.8118L354.037 38.9322ZM345.219 32.9585C342.803 30.3077 341.543 26.6673 341.543 21.92H339.543C339.543 27.0287 340.907 31.1963 343.74 34.3055L345.219 32.9585ZM341.543 21.92C341.543 14.9912 344.183 10.026 349.416 6.83801L348.375 5.12999C342.472 8.72602 339.543 14.3848 339.543 21.92H341.543ZM349.418 6.83632C354.853 3.50167 361.762 1.8 370.207 1.8V-0.200005C361.501 -0.200005 354.202 1.55432 348.372 5.13167L349.418 6.83632Z" fill="#FFFF00"/>
</svg>
