<svg width="108" height="108" viewBox="0 0 108 108" fill="none" xmlns="http://www.w3.org/2000/svg">
<path d="M26.2624 92.4406C27.372 92.0991 28.5754 92.2574 29.559 92.8741C36.8039 97.4168 45.1791 99.8611 53.925 99.8611C79.2948 99.8611 99.8611 79.2948 99.8611 53.925C99.8611 28.5552 79.2948 7.98889 53.925 7.98889C28.5552 7.98889 7.98889 28.5552 7.98889 53.925C7.98889 62.9278 10.5794 71.5363 15.3764 78.9184C16.007 79.8888 16.1857 81.0851 15.8662 82.1974C15.256 84.3223 14.4164 87.3156 13.4062 90.9588C13.3626 91.1159 13.3626 91.1159 13.3191 91.273C12.8175 93.0826 12.2947 94.9771 11.7655 96.9011L26.2624 92.4406ZM7.16638 106.675C4.15722 107.601 1.30962 104.843 2.13795 101.806C2.19214 101.607 2.19214 101.607 2.43549 100.717C2.67214 99.8508 2.93619 98.8861 3.22102 97.8473C4.03489 94.879 4.85232 91.9106 5.62039 89.1393C5.66408 88.9816 5.66408 88.9816 5.70778 88.8241C6.47765 86.0477 7.1494 83.6452 7.69872 81.7072C2.69298 73.3962 0 63.8558 0 53.925C0 24.143 24.143 0 53.925 0C83.707 0 107.85 24.143 107.85 53.925C107.85 83.707 83.707 107.85 53.925 107.85C44.2996 107.85 35.0387 105.32 26.9045 100.601L7.16638 106.675ZM62.751 63.7496C63.2819 63.2186 63.8586 62.5779 64.4625 61.8532C65.2167 60.9482 65.9698 59.9659 66.6802 58.9823C67.1052 58.3937 67.4167 57.9426 67.5778 57.7009C67.7237 57.4821 67.8909 57.2782 68.0769 57.0922C68.4202 56.7488 68.8722 56.4099 69.4479 56.122C71.2382 55.2269 73.4495 55.2269 75.6836 56.3439C76.4251 56.7147 85.0229 62.3048 88.819 64.4138C90.2961 65.2344 91.097 66.8956 90.8193 68.5622C89.9172 73.9745 88.3503 78.0751 84.8354 81.5899C79.9688 86.4566 72.5215 88.3652 62.32 86.835C43.4368 84.0025 27.195 67.4542 20.2385 49.3673C17.2126 41.4999 18.6947 33.7601 22.8866 26.7736C24.4403 24.1841 26.008 22.268 27.1338 21.1422C27.6915 20.5845 28.4017 20.2044 29.175 20.0498C29.5197 19.9808 30.0616 19.8852 30.7249 19.7905C31.4216 19.6909 32.1101 19.6144 32.7748 19.5701C35.493 19.3889 37.2123 19.5799 38.7745 21.1422C40.7486 23.1163 46.9347 35.0126 46.9347 37.9472C46.9347 41.0303 45.5824 43.6461 42.2209 47.2616C43.1734 49.8229 46.5052 53.7265 51.344 57.705C53.8549 59.7695 56.5897 61.713 58.98 63.1659C60.0468 63.8143 60.9884 64.3293 61.7077 64.6637C62.0235 64.4434 62.3693 64.1313 62.751 63.7496ZM29.737 30.8838C26.6963 35.9518 25.6798 41.2601 27.6949 46.4994C33.7155 62.1531 47.8867 76.5917 63.505 78.9345C71.3674 80.1138 76.27 78.8574 79.1864 75.9409C80.7454 74.382 81.7186 72.4508 82.3827 69.9109C78.9509 67.8542 74.6702 65.1112 72.914 63.9935C72.1746 65.0047 71.3962 66.0118 70.5997 66.9676C69.8513 67.8657 69.1172 68.6813 68.4 69.3986C66.1726 71.6259 64.2636 72.8986 61.9139 72.8986C58.977 72.8986 52.3296 68.858 46.2702 63.8759C38.7003 57.6517 33.9528 51.5793 33.9528 45.9361C33.9528 44.8767 34.3736 43.8607 35.1227 43.1116C38.1852 40.0491 38.9458 38.7814 38.9458 37.9472C38.7749 37.7303 38.5817 37.2424 38.326 36.6549C37.8195 35.4914 37.1005 34.0115 36.2757 32.4253C35.5128 30.9582 34.7009 29.4809 34.0148 28.307C33.848 28.0217 33.6921 27.7601 33.5502 27.5275C33.4722 27.5311 33.3907 27.5357 33.3062 27.5413C32.9035 27.5682 32.4597 27.6158 31.9999 27.6787C31.1728 28.6889 30.4298 29.7293 29.737 30.8838Z" fill="#25D366"/>
</svg>
